<?xml version="1.0" encoding="UTF-8"?>
<svg width="407px" height="533px" viewBox="0 0 407 533" version="1.1" xmlns="http://www.w3.org/2000/svg" xmlns:xlink="http://www.w3.org/1999/xlink">
    <!-- Generator: Sketch 64 (93537) - https://sketch.com -->
    <title>simulated-live-logic</title>
    <desc>Created with Sketch.</desc>
    <g id="Page-1" stroke="none" stroke-width="1" fill="none" fill-rule="evenodd">
        <g id="Group" transform="translate(32.000000, 0.000000)">
            <rect id="Rectangle" stroke="#979797" fill="#D8D8D8" x="0.5" y="0.5" width="343" height="36"></rect>
            <text id="Set-arbitrary-time-i" font-family="Helvetica" font-size="12" font-weight="normal" fill="#000000">
                <tspan x="98.4716797" y="16">Set arbitrary time in past as </tspan>
                <tspan x="143.811523" y="30">base point </tspan>
            </text>
        </g>
        <g id="Group" transform="translate(32.000000, 62.000000)">
            <rect id="Rectangle" stroke="#979797" fill="#D8D8D8" x="0.5" y="0.5" width="343" height="36"></rect>
            <text id="Get-time-difference" font-family="Helvetica" font-size="12" font-weight="normal" fill="#000000">
                <tspan x="83.890625" y="16">Get time difference between now </tspan>
                <tspan x="132.133789" y="30">and base point </tspan>
            </text>
        </g>
        <g id="Group" transform="translate(32.000000, 124.000000)">
            <rect id="Rectangle" stroke="#979797" fill="#D8D8D8" x="0.5" y="0.5" width="343" height="36"></rect>
            <text id="Get-playist-duration" font-family="Helvetica" font-size="12" font-weight="normal" fill="#000000">
                <tspan x="111.801758" y="16">Get playist duration by</tspan>
                <tspan x="104.799805" y="30">summing video durations</tspan>
            </text>
        </g>
        <g id="Group" transform="translate(32.000000, 186.000000)">
            <rect id="Rectangle" stroke="#979797" fill="#D8D8D8" x="0.5" y="0.5" width="343" height="36"></rect>
            <text id="Get-playist-duration" font-family="Helvetica" font-size="12" font-weight="normal" fill="#000000">
                <tspan x="111.801758" y="16">Get playist duration by</tspan>
                <tspan x="104.799805" y="30">summing video durations</tspan>
            </text>
        </g>
        <g id="Group" transform="translate(0.000000, 248.000000)">
            <rect id="Rectangle" stroke="#979797" fill="#D8D8D8" x="31.5" y="0.5" width="344" height="36"></rect>
            <text id="Get-current-playlist" font-family="Helvetica" font-size="12" font-weight="normal" fill="#000000">
                <tspan x="122.629883" y="16">Get current playlist position as</tspan>
                <tspan x="81.7138672" y="30">remainder of time difference / playlist duration</tspan>
            </text>
        </g>
        <g id="Group" transform="translate(0.000000, 310.000000)">
            <rect id="Rectangle" stroke="#979797" fill="#D8D8D8" x="31.5" y="0.5" width="344" height="36"></rect>
            <text id="Find-the-video-that" font-family="Helvetica" font-size="12" font-weight="normal" fill="#000000">
                <tspan x="101.272461" y="16">Find the video that the playlist position</tspan>
                <tspan x="185.993164" y="30">falls in</tspan>
            </text>
        </g>
        <g id="Group" transform="translate(1.000000, 372.000000)">
            <rect id="Rectangle" stroke="#979797" fill="#D8D8D8" x="31.5" y="0.5" width="344" height="36"></rect>
            <text id="Get-the-video-positi" font-family="Helvetica" font-size="12" font-weight="normal" fill="#000000">
                <tspan x="84.9394531" y="16">Get the video position by subtracting its start</tspan>
                <tspan x="63.9248047" y="30">point in the playlist duration from the current position</tspan>
            </text>
        </g>
        <g id="Group" transform="translate(0.000000, 434.000000)">
            <rect id="Rectangle" stroke="#979797" fill="#D8D8D8" x="31.5" y="0.5" width="344" height="36"></rect>
            <text id="Load-the-video-and-s" font-family="Helvetica" font-size="12" font-weight="normal" fill="#000000">
                <tspan x="119.269531" y="16">Load the video and seek to that</tspan>
                <tspan x="182.319336" y="30">position</tspan>
            </text>
        </g>
        <g id="Group" transform="translate(1.000000, 496.000000)">
            <rect id="Rectangle" stroke="#979797" fill="#D8D8D8" x="31.5" y="0.5" width="344" height="36"></rect>
            <text id="Start-endess-playbac" font-family="Helvetica" font-size="12" font-weight="normal" fill="#000000">
                <tspan x="190.329102" y="16">Start</tspan>
                <tspan x="158.304688" y="30">endess playback</tspan>
            </text>
        </g>
        <path id="Line" d="M204,37 L204,54 L208,54 L203.5,63 L199,54 L203,54 L203,37 L204,37 Z" fill="#979797" fill-rule="nonzero"></path>
        <path id="Line" d="M204.5,98.5 L204.5,115.5 L208.5,115.5 L204,124.5 L199.5,115.5 L203.5,115.5 L203.5,98.5 L204.5,98.5 Z" fill="#979797" fill-rule="nonzero"></path>
        <path id="Line" d="M203.5,160.5 L203.5,177.5 L207.5,177.5 L203,186.5 L198.5,177.5 L202.5,177.5 L202.5,160.5 L203.5,160.5 Z" fill="#979797" fill-rule="nonzero"></path>
        <path id="Line" d="M204.5,222.5 L204.5,239.5 L208.5,239.5 L204,248.5 L199.5,239.5 L203.5,239.5 L203.5,222.5 L204.5,222.5 Z" fill="#979797" fill-rule="nonzero"></path>
        <path id="Line" d="M204.5,284.5 L204.5,301.5 L208.5,301.5 L204,310.5 L199.5,301.5 L203.5,301.5 L203.5,284.5 L204.5,284.5 Z" fill="#979797" fill-rule="nonzero"></path>
        <path id="Line" d="M204.5,346.5 L204.5,363.5 L208.5,363.5 L204,372.5 L199.5,363.5 L203.5,363.5 L203.5,346.5 L204.5,346.5 Z" fill="#979797" fill-rule="nonzero"></path>
        <path id="Line" d="M204.5,408.5 L204.5,425.5 L208.5,425.5 L204,434.5 L199.5,425.5 L203.5,425.5 L203.5,408.5 L204.5,408.5 Z" fill="#979797" fill-rule="nonzero"></path>
        <path id="Line" d="M203.5,470.5 L203.5,487.5 L207.5,487.5 L203,496.5 L198.5,487.5 L202.5,487.5 L202.5,470.5 L203.5,470.5 Z" fill="#979797" fill-rule="nonzero"></path>
    </g>
</svg>